<svg width="15" height="16" viewBox="0 0 15 16" fill="none" xmlns="http://www.w3.org/2000/svg">
<path d="M14.7879 13.9582L11.5296 10.6998C11.3399 10.5102 11.0368 10.4955 10.7964 10.6453L10.1581 10.0069C11.0075 9.0034 11.52 7.70558 11.52 6.28785C11.52 3.1067 8.94118 0.527847 5.76 0.527847C2.57882 0.527847 0 3.1067 0 6.28785C0 9.469 2.57882 12.0478 5.76 12.0478C7.17782 12.0478 8.47571 11.5353 9.47926 10.6857L10.1175 11.324C9.96762 11.5644 9.98221 11.8677 10.172 12.0575L13.4303 15.3158C13.6552 15.5408 14.0402 15.5206 14.2902 15.2706L14.7427 14.818C14.9926 14.568 15.0129 14.1831 14.7879 13.9582ZM5.76 10.1278C3.63926 10.1278 1.92 8.40858 1.92 6.28785C1.92 4.16708 3.63926 2.44785 5.76 2.44785C7.88074 2.44785 9.6 4.16708 9.6 6.28785C9.6 8.40858 7.88074 10.1278 5.76 10.1278Z" fill="#224422"/>
</svg>
